<svg width="64" height="64" viewBox="0 0 64 64" fill="none" xmlns="http://www.w3.org/2000/svg">
<g clip-path="url(#clip0_302815_4230)">
<path d="M61.5463 43.9774L44.6599 27.271L46.534 18.2049C47.0176 18.3904 47.5318 18.4873 48.0508 18.4909H48.0636C50.4482 18.5186 52.404 16.6425 52.4323 14.3006C52.4606 11.9586 50.5503 10.0377 48.1658 10.0099C45.7812 9.9823 43.8254 11.8583 43.7971 14.2003C43.7911 14.7014 43.8755 15.1996 44.0466 15.6718L34.1266 16.8608L17.9452 0.885697C17.7467 0.68678 17.4757 0.573637 17.1921 0.571411C16.9121 0.572852 16.644 0.682328 16.4455 0.876268L13.4204 3.83055C13.004 4.23965 13.004 4.90279 13.4204 5.31189L15.0481 6.9336C8.74201 18.3224 10.7903 32.4257 20.0871 41.6287C20.1724 41.7088 20.2713 41.7736 20.3793 41.8204C20.3121 42.1749 20.2771 42.5346 20.2748 42.8952V55.0476H7.47481C4.53081 55.051 2.14495 57.3943 2.14148 60.2857V62.3809C2.14148 62.9595 2.61908 63.4286 3.20815 63.4286H52.2748C52.8639 63.4286 53.3415 62.9595 53.3415 62.3809V60.2857C53.338 57.3943 50.9522 55.051 48.0082 55.0476H35.2082V49.6618C37.2134 50.0748 39.2564 50.2854 41.3052 50.2904C46.2215 50.2851 51.0595 49.0814 55.3852 46.7871L57.0215 48.4036C57.22 48.6025 57.491 48.7157 57.7746 48.7179C58.0546 48.7164 58.3227 48.607 58.5212 48.413L61.5463 45.4587C61.9627 45.0496 61.9627 44.3865 61.5463 43.9774ZM46.5596 12.8149C47.395 11.9988 48.7458 12.0025 49.5766 12.8229C50.4075 13.6433 50.4038 14.97 49.5684 15.786C49.1686 16.1766 48.6275 16.3958 48.0635 16.3957H48.0571C46.879 16.3897 45.9287 15.4468 45.9348 14.2896C45.9378 13.7357 46.1639 13.2056 46.5638 12.8149H46.5596ZM44.0487 19.6988L42.8519 25.4848L40.5009 23.1623L44.0487 19.6988ZM42.837 17.9273L38.997 21.6767L36.0263 18.7434L42.837 17.9273ZM48.0082 57.1428C49.7755 57.1428 51.2082 58.5499 51.2082 60.2857V61.3333H4.27481V60.2857C4.27481 58.5499 5.70748 57.1428 7.47481 57.1428H48.0082ZM33.0748 52.9524V55.0476H22.4081V52.9524H33.0748ZM22.4081 50.8571V42.8952C22.4081 40.3537 24.8007 38.2857 27.7415 38.2857C30.6823 38.2857 33.0748 40.3537 33.0748 42.8952V50.8571H22.4081ZM35.2082 47.5257V42.8952C35.2082 39.1982 31.8588 36.1905 27.7415 36.1905C25.0793 36.1504 22.59 37.4813 21.1793 39.6989C13.0639 31.304 11.2364 18.7887 16.6221 8.49207L53.8258 45.2408C48.081 48.111 41.4955 48.9192 35.2082 47.5257ZM57.7863 46.1826L56.2834 44.6982L17.1815 6.06303L15.6721 4.57751L17.1815 3.10036L33.0513 18.7748C33.0588 18.7748 33.0631 18.7885 33.0706 18.7937L59.2999 44.7055L57.7863 46.1826Z" fill="#2E2F42"/>
<path d="M27.7511 40.3809H27.7415C25.9742 40.3783 24.5394 41.7833 24.5367 43.5191C24.534 45.2548 25.9646 46.664 27.7319 46.6666H27.7415C29.5088 46.6693 30.9436 45.2643 30.9463 43.5285C30.9489 41.7927 29.5184 40.3835 27.7511 40.3809ZM28.4978 44.2665C28.297 44.4627 28.0248 44.5725 27.7415 44.5714C27.1524 44.5684 26.6774 44.097 26.6804 43.5184C26.6819 43.2415 26.795 42.9764 26.9948 42.781C27.1934 42.5871 27.4615 42.4776 27.7415 42.4762C28.3306 42.4792 28.8056 42.9506 28.8026 43.5292C28.8011 43.8061 28.688 44.0712 28.4882 44.2665H28.4978Z" fill="#4D5AE5"/>
</g>
<defs>
<clipPath id="clip0_302815_4230">
<rect width="64" height="62.8571" fill="white" transform="translate(0 0.571411)"/>
</clipPath>
</defs>
</svg>
